<?xml version="1.0" encoding="utf-8"?>
<!-- Generator: Adobe Illustrator 19.2.1, SVG Export Plug-In . SVG Version: 6.00 Build 0)  -->
<svg version="1.1" id="Слой_1" xmlns="http://www.w3.org/2000/svg"
  xmlns:xlink="http://www.w3.org/1999/xlink" x="0px" y="0px"
  viewBox="0 0 681 348.7" style="enable-background:new 0 0 681 348.7;" xml:space="preserve" fill='white'>
<g>
	<polygon points="30.2,116.3 15.4,107.8 14.2,109.9 30.2,119.1 30.2,334.5 50.5,334.5 50.5,332.1 32.6,332.1 32.6,120.5 46.1,128.3 
		47.3,126.3 32.6,117.7 32.6,16.6 50.5,16.6 50.5,14.2 30.2,14.2 	"/>
	<polygon points="358.2,176.2 313.4,188.4 313.4,188.4 312.4,188.7 283.8,139.3 281.7,140.5 309.2,188.1 234.5,164.9 169.4,181.9 
		123.2,123.8 193.7,142.4 193.7,142.4 195.9,143 198.1,142.4 198.1,142.4 252.7,128.1 252.1,125.8 196.4,140.4 161.1,98.4 
		161.1,98.4 160.3,97.4 160.8,96.3 160.8,96.3 175.5,64.9 173.3,63.9 160.6,91.2 121.4,91.2 121.4,93.6 159.4,93.6 158,96.7 
		157.5,97.8 158,98.4 158,98.4 160.7,101.6 121.4,101.6 121.4,104 162.7,104 192.6,139.6 120.6,120.7 120,120.5 119.7,120.6 
		119.7,120.6 84.2,130.8 84.8,133.1 118.4,123.4 118.4,123.5 119.4,123.2 156.7,188 124.3,178.8 123.6,181.1 158.4,191 160.9,195.3 
		237.2,175.3 237.5,175.4 252.9,202.1 255,200.9 240.7,176.1 311.5,191.3 311.5,191.3 311.8,191.3 313.1,191 358.9,178.5 	"/>
	<polygon points="650.7,176.8 650.1,174.5 629.7,180.3 629.7,14.2 609.4,14.2 609.4,16.6 627.3,16.6 627.3,181 600.3,188.7 
		571.8,139.3 569.7,140.5 597.2,188 522.5,164.9 457.4,181.9 411.1,123.8 481.7,142.4 481.7,142.4 483.9,143 486.1,142.4 
		486.1,142.4 540.7,128.1 540.1,125.8 484.3,140.4 449.1,98.4 449.1,98.4 448.3,97.4 448.8,96.3 448.8,96.3 463.5,64.9 461.3,63.9 
		445.8,97.1 445.8,97.1 445.5,97.8 446.2,98.6 480.5,139.6 409,120.8 408,120.5 407.4,120.7 372.2,130.8 372.8,133.1 406.4,123.4 
		406.4,123.5 407.4,123.2 444.7,188.1 398.6,176 398,178.3 446.4,191.1 448.8,195.3 525.2,175.3 525.5,175.4 539.9,200.2 541.9,199 
		528.7,176.1 599.4,191.3 599.7,191.3 602,190.7 602,190.7 627.3,183.5 627.3,332.1 609.4,332.1 609.4,334.5 629.7,334.5 
		629.7,182.8 	"/>
	<path d="M265.3,134.5c3.1,1.8,7,1.8,7,1.8c3.9,0,7-1.8,7-1.8c3.1-1.8,4.9-5.2,4.9-5.2c1.8-3.4,1.8-7.8,1.8-7.8
		c0-4.5-1.8-7.8-1.8-7.8c-1.8-3.4-4.9-5.2-4.9-5.2c-3.1-1.8-7-1.8-7-1.8c-3.9,0-7,1.8-7,1.8c-3.1,1.8-4.9,5.2-4.9,5.2
		c-1.8,3.4-1.8,7.8-1.8,7.8c0,4.4,1.8,7.7,1.8,7.7C262.2,132.6,265.3,134.5,265.3,134.5z M263.8,115.4c1.2-2.7,3.4-4,3.4-4
		c2.2-1.4,5.1-1.4,5.1-1.4c2.9,0,5.1,1.4,5.1,1.4c2.2,1.4,3.4,4,3.4,4c1.2,2.6,1.2,6.2,1.2,6.2c0,3.6-1.3,6.2-1.3,6.2
		c-1.2,2.6-3.4,4-3.4,4c-2.2,1.4-5.1,1.4-5.1,1.4c-2.8,0-5-1.4-5-1.4c-2.2-1.4-3.5-4-3.5-4c-1.2-2.6-1.2-6.1-1.2-6.1
		C262.5,118,263.8,115.4,263.8,115.4z"/>
	<path d="M271.7,206.7c-3.1-1.8-7-1.8-7-1.8c-3.9,0-7,1.8-7,1.8c-3.1,1.8-4.9,5.2-4.9,5.2c-1.8,3.4-1.8,7.8-1.8,7.8
		c0,4.3,1.8,7.7,1.8,7.7c1.8,3.4,4.9,5.2,4.9,5.2c3.1,1.8,7,1.8,7,1.8c3.9,0,7-1.8,7-1.8c3.1-1.8,4.9-5.2,4.9-5.2
		c1.8-3.4,1.8-7.8,1.8-7.8c0-4.5-1.8-7.8-1.8-7.8C274.8,208.6,271.7,206.7,271.7,206.7z M273.2,226c-1.2,2.6-3.4,4-3.4,4
		c-2.2,1.4-5.1,1.4-5.1,1.4c-2.8,0-5-1.4-5-1.4c-2.2-1.4-3.5-4-3.5-4c-1.2-2.6-1.2-6.1-1.2-6.1c0-3.6,1.2-6.2,1.2-6.2
		c1.2-2.7,3.4-4,3.4-4c2.2-1.4,5.1-1.4,5.1-1.4c2.9,0,5.1,1.4,5.1,1.4c2.2,1.4,3.4,4,3.4,4c1.2,2.6,1.2,6.2,1.2,6.2
		C274.5,223.4,273.2,226,273.2,226z"/>
	<polygon points="300.3,217.2 286.2,217.2 286.2,205.4 282.4,205.4 282.4,234.1 286.2,234.1 286.2,220.6 300.3,220.6 300.3,234.1 
		304.1,234.1 304.1,205.4 300.3,205.4 	"/>
	<path d="M76.6,145.2c1.8-3.4,1.8-7.8,1.8-7.8c0-4.5-1.8-7.8-1.8-7.8c-1.8-3.4-4.9-5.2-4.9-5.2c-3.1-1.8-7-1.8-7-1.8
		c-3.9,0-7,1.8-7,1.8c-3.2,1.8-4.9,5.2-4.9,5.2c-1.8,3.4-1.8,7.8-1.8,7.8c0,4.4,1.8,7.7,1.8,7.7c1.8,3.4,4.9,5.2,4.9,5.2
		c3.2,1.8,7.1,1.8,7.1,1.8c3.9,0,7-1.8,7-1.8C74.8,148.5,76.6,145.2,76.6,145.2z M69.7,147.6c-2.2,1.4-5,1.4-5,1.4
		c-2.8,0-5-1.4-5-1.4c-2.2-1.4-3.5-4-3.5-4c-1.2-2.6-1.2-6.1-1.2-6.1c0-3.6,1.2-6.2,1.2-6.2c1.2-2.7,3.5-4,3.5-4
		c2.2-1.4,5.1-1.4,5.1-1.4c2.9,0,5.1,1.4,5.1,1.4c2.2,1.4,3.5,4,3.5,4c1.2,2.6,1.2,6.2,1.2,6.2c0,3.6-1.2,6.2-1.2,6.2
		C71.9,146.2,69.7,147.6,69.7,147.6z"/>
	<path d="M111.1,161.1c-3.1-1.8-7-1.8-7-1.8c-3.9,0-7,1.8-7,1.8c-3.1,1.8-4.9,5.2-4.9,5.2c-1.8,3.4-1.8,7.8-1.8,7.8
		c0,4.4,1.8,7.7,1.8,7.7c1.8,3.4,4.9,5.2,4.9,5.2c3.1,1.8,7,1.8,7,1.8c3.9,0,7-1.8,7-1.8c3.1-1.8,4.9-5.2,4.9-5.2
		c1.8-3.4,1.8-7.8,1.8-7.8c0-4.5-1.8-7.8-1.8-7.8C114.3,162.9,111.1,161.1,111.1,161.1z M112.7,180.3c-1.3,2.6-3.5,4-3.5,4
		c-2.2,1.4-5.1,1.4-5.1,1.4c-2.8,0-5-1.4-5-1.4c-2.2-1.4-3.5-4-3.5-4c-1.2-2.6-1.2-6.1-1.2-6.1c0-3.6,1.2-6.2,1.2-6.2
		c1.2-2.6,3.4-4,3.4-4c2.2-1.4,5.1-1.4,5.1-1.4c2.9,0,5.1,1.4,5.1,1.4c2.2,1.4,3.4,4,3.4,4c1.2,2.6,1.2,6.2,1.2,6.2
		C113.9,177.7,112.7,180.3,112.7,180.3z"/>
	<polygon points="82.6,171.5 68.5,171.5 68.5,159.7 64.7,159.7 64.7,188.3 68.5,188.3 68.5,174.9 82.6,174.9 82.6,188.3 86.4,188.3 
		86.4,159.7 82.6,159.7 	"/>
	<path d="M94.3,110.3c3.1,1.8,7,1.8,7,1.8c3.9,0,7-1.8,7-1.8c3.1-1.8,4.9-5.2,4.9-5.2c1.8-3.4,1.8-7.8,1.8-7.8
		c0-4.5-1.8-7.8-1.8-7.8c-1.8-3.3-4.9-5.2-4.9-5.2c-3.1-1.8-7-1.8-7-1.8c-3.9,0-7,1.8-7,1.8c-3.1,1.8-4.9,5.2-4.9,5.2
		c-1.8,3.4-1.8,7.8-1.8,7.8c0,4.3,1.8,7.7,1.8,7.7C91.2,108.5,94.3,110.3,94.3,110.3z M92.8,91.2c1.2-2.6,3.4-4,3.4-4
		c2.2-1.4,5.1-1.4,5.1-1.4c2.9,0,5.1,1.4,5.1,1.4c2.2,1.4,3.4,4,3.4,4c1.2,2.6,1.2,6.2,1.2,6.2c0,3.6-1.3,6.2-1.3,6.2
		c-1.2,2.6-3.4,4-3.4,4c-2.2,1.4-5.1,1.4-5.1,1.4c-2.8,0-5-1.4-5-1.4c-2.2-1.4-3.5-4-3.5-4c-1.2-2.6-1.2-6.1-1.2-6.1
		C91.5,93.9,92.8,91.2,92.8,91.2z"/>
	<path d="M176.2,58.1c3.2,1.8,7.1,1.8,7.1,1.8c3.9,0,7-1.8,7-1.8c3.1-1.8,4.9-5.2,4.9-5.2c1.8-3.4,1.8-7.8,1.8-7.8
		c0-4.5-1.8-7.8-1.8-7.8c-1.8-3.3-4.9-5.2-4.9-5.2c-3.1-1.8-7-1.8-7-1.8c-3.9,0-7,1.8-7,1.8c-3.2,1.8-4.9,5.2-4.9,5.2
		c-1.8,3.4-1.8,7.8-1.8,7.8c0,4.3,1.8,7.7,1.8,7.7C173.1,56.3,176.2,58.1,176.2,58.1z M174.7,39c1.2-2.6,3.5-4,3.5-4
		c2.2-1.4,5.1-1.4,5.1-1.4c2.9,0,5.1,1.4,5.1,1.4c2.2,1.4,3.5,4,3.5,4c1.2,2.6,1.2,6.2,1.2,6.2c0,3.6-1.2,6.2-1.2,6.2
		c-1.2,2.6-3.5,4-3.5,4c-2.2,1.4-5,1.4-5,1.4c-2.8,0-5-1.4-5-1.4c-2.2-1.4-3.5-4-3.5-4c-1.2-2.6-1.2-6.1-1.2-6.1
		C173.5,41.7,174.7,39,174.7,39z"/>
	<polygon points="204.8,46 218.8,46 218.8,59.5 222.7,59.5 222.7,30.9 218.8,30.9 218.8,42.6 204.8,42.6 204.8,30.9 201,30.9 
		201,59.5 204.8,59.5 	"/>
	<path d="M385.5,158.7c-3.1-1.8-7-1.8-7-1.8c-3.9,0-7,1.8-7,1.8c-3.1,1.8-4.9,5.2-4.9,5.2c-1.8,3.4-1.8,7.8-1.8,7.8
		c0,4.4,1.8,7.7,1.8,7.7c1.8,3.4,4.9,5.2,4.9,5.2c3.1,1.9,7,1.9,7,1.9c3.9,0,7-1.8,7-1.8c3.1-1.8,4.9-5.2,4.9-5.2
		c1.8-3.4,1.8-7.8,1.8-7.8c0-4.4-1.8-7.8-1.8-7.8C388.5,160.5,385.5,158.7,385.5,158.7z M386.9,177.9c-1.3,2.6-3.5,4-3.5,4
		c-2.2,1.4-5.1,1.4-5.1,1.4c-2.8,0-5-1.4-5-1.4c-2.2-1.4-3.5-4-3.5-4c-1.2-2.6-1.2-6.1-1.2-6.1c0-3.6,1.2-6.2,1.2-6.2
		c1.2-2.6,3.4-4,3.4-4c2.2-1.4,5.1-1.4,5.1-1.4c2.9,0,5.1,1.4,5.1,1.4c2.2,1.4,3.4,4,3.4,4c1.2,2.6,1.2,6.2,1.2,6.2
		C388.2,175.3,386.9,177.9,386.9,177.9z"/>
	<path d="M553.3,134.5c3.1,1.8,7,1.8,7,1.8c3.9,0,7-1.8,7-1.8c3.1-1.8,4.9-5.2,4.9-5.2c1.8-3.4,1.8-7.8,1.8-7.8
		c0-4.5-1.8-7.8-1.8-7.8c-1.8-3.4-4.9-5.2-4.9-5.2c-3.1-1.8-7-1.8-7-1.8c-3.9,0-7,1.8-7,1.8c-3.1,1.8-4.9,5.2-4.9,5.2
		c-1.8,3.4-1.8,7.8-1.8,7.8c0,4.4,1.8,7.7,1.8,7.7C550.1,132.6,553.3,134.5,553.3,134.5z M551.7,115.4c1.2-2.7,3.4-4,3.4-4
		c2.2-1.4,5.1-1.4,5.1-1.4c2.9,0,5.1,1.4,5.1,1.4c2.2,1.4,3.4,4,3.4,4c1.2,2.6,1.2,6.2,1.2,6.2c0,3.6-1.2,6.2-1.2,6.2
		c-1.3,2.6-3.5,4-3.5,4c-2.2,1.4-5.1,1.4-5.1,1.4c-2.8,0-5-1.4-5-1.4c-2.2-1.4-3.5-4-3.5-4c-1.2-2.6-1.2-6.1-1.2-6.1
		C550.5,118,551.7,115.4,551.7,115.4z"/>
	<polygon points="560,227.5 559.9,227.5 545.6,205.2 541.7,205.2 541.7,233.8 545.3,233.8 545.3,211.5 545.3,211.5 559.7,233.8 
		563.6,233.8 563.6,205.2 560,205.2 	"/>
	<polygon points="585.5,216.9 571.4,216.9 571.4,205.2 567.6,205.2 567.6,233.8 571.4,233.8 571.4,220.3 585.5,220.3 585.5,233.8 
		589.3,233.8 589.3,205.2 585.5,205.2 	"/>
	<path d="M364.5,129.6c-1.8-3.4-4.9-5.2-4.9-5.2c-3.1-1.8-7-1.8-7-1.8c-3.9,0-7,1.8-7,1.8c-3.1,1.8-4.9,5.2-4.9,5.2
		c-1.8,3.4-1.8,7.8-1.8,7.8c0,4.4,1.8,7.7,1.8,7.7c1.8,3.4,4.9,5.2,4.9,5.2c3.1,1.8,7,1.8,7,1.8c3.9,0,7-1.8,7-1.8
		c3.1-1.8,4.9-5.2,4.9-5.2c1.8-3.4,1.8-7.8,1.8-7.8C366.3,132.9,364.5,129.6,364.5,129.6z M361.1,143.6c-1.2,2.6-3.4,4-3.4,4
		c-2.2,1.4-5.1,1.4-5.1,1.4c-2.8,0-5-1.4-5-1.4c-2.2-1.4-3.5-4-3.5-4c-1.2-2.6-1.2-6.1-1.2-6.1c0-3.6,1.2-6.2,1.2-6.2
		c1.2-2.7,3.4-4,3.4-4c2.2-1.4,5.1-1.4,5.1-1.4c2.9,0,5.1,1.4,5.1,1.4c2.2,1.4,3.4,4,3.4,4c1.2,2.6,1.2,6.2,1.2,6.2
		C362.4,141,361.1,143.6,361.1,143.6z"/>
	<polygon points="317.1,138.2 331.1,138.2 331.1,151.7 334.9,151.7 334.9,123.1 331.1,123.1 331.1,134.8 317.1,134.8 317.1,123.1 
		313.3,123.1 313.3,151.7 317.1,151.7 	"/>
	<path d="M464.2,58.1c3.1,1.8,7,1.8,7,1.8c3.9,0,7-1.8,7-1.8c3.1-1.8,4.9-5.2,4.9-5.2c1.8-3.4,1.8-7.8,1.8-7.8
		c0-4.5-1.8-7.8-1.8-7.8c-1.8-3.3-4.9-5.2-4.9-5.2c-3.1-1.8-7-1.8-7-1.8c-3.9,0-7,1.8-7,1.8c-3.1,1.8-4.9,5.2-4.9,5.2
		c-1.8,3.4-1.8,7.8-1.8,7.8c0,4.3,1.8,7.7,1.8,7.7C461.1,56.3,464.2,58.1,464.2,58.1z M462.7,39c1.2-2.6,3.4-4,3.4-4
		c2.2-1.4,5.1-1.4,5.1-1.4c2.9,0,5.1,1.4,5.1,1.4c2.2,1.4,3.4,4,3.4,4c1.2,2.6,1.2,6.2,1.2,6.2c0,3.6-1.3,6.2-1.3,6.2
		c-1.2,2.6-3.4,4-3.4,4c-2.2,1.4-5.1,1.4-5.1,1.4c-2.8,0-5-1.4-5-1.4c-2.2-1.4-3.5-4-3.5-4c-1.2-2.6-1.2-6.1-1.2-6.1
		C461.5,41.7,462.7,39,462.7,39z"/>
	<polygon points="492.7,46 506.8,46 506.8,59.5 510.6,59.5 510.6,30.9 506.8,30.9 506.8,42.6 492.7,42.6 492.7,30.9 488.9,30.9 
		488.9,59.5 492.7,59.5 	"/>
	<polygon points="525.9,268.7 525.8,268.7 542.5,239.9 540.4,238.7 526.1,263.5 486.3,263.5 486.3,265.9 524.7,265.9 522.8,269.3 
		522.8,269.3 522.4,269.9 522.8,270.5 522.8,270.5 522.9,270.6 523.8,272.2 523.8,272.2 524.7,273.9 486.3,273.9 486.3,276.3 
		526.1,276.3 551.6,320.3 553.7,319.1 525.2,269.9 	"/>
	<path d="M473.3,256.6c-3.1-1.8-7-1.8-7-1.8c-3.9,0-7,1.8-7,1.8c-3.1,1.8-4.9,5.2-4.9,5.2c-1.8,3.4-1.8,7.8-1.8,7.8
		c0,4.4,1.8,7.7,1.8,7.7c1.8,3.3,4.9,5.2,4.9,5.2c3.1,1.8,7,1.8,7,1.8c3.9,0,7-1.8,7-1.8c3.1-1.8,4.9-5.2,4.9-5.2
		c1.8-3.4,1.8-7.8,1.8-7.8c0-4.5-1.8-7.8-1.8-7.8C476.4,258.5,473.3,256.6,473.3,256.6z M474.8,275.9c-1.3,2.6-3.5,4-3.5,4
		c-2.2,1.4-5.1,1.4-5.1,1.4c-2.8,0-5-1.4-5-1.4c-2.2-1.4-3.5-4-3.5-4c-1.2-2.6-1.2-6.1-1.2-6.1c0-3.6,1.2-6.2,1.2-6.2
		c1.2-2.7,3.4-4,3.4-4c2.2-1.4,5.1-1.4,5.1-1.4c2.9,0,5.1,1.4,5.1,1.4c2.2,1.4,3.4,4,3.4,4c1.2,2.6,1.2,6.2,1.2,6.2
		C476,273.3,474.8,275.9,474.8,275.9z"/>
	<path d="M664.5,309.3c-1.6-1.6-3.9-2.4-7.1-2.4c-1.7,0-3.3,0.4-4.8,1.2c-1.5,0.8-2.6,1.8-3.5,3.2v-3.8h-4.3v26.9h4.6v-15
		c0-3,0.6-5.2,1.9-6.6c1.3-1.4,3-2.1,5.3-2.1c1.8,0,3.2,0.5,4.2,1.5s1.5,2.5,1.5,4.5v17.6h4.6v-18.2
		C666.9,313.2,666.1,310.9,664.5,309.3z"/>
</g>
</svg>