<!-- Generator: Adobe Illustrator 12.0.1, SVG Export Plug-In . SVG Version: 6.00 Build 51448)  -->

<svg xmlns:rdf="http://www.w3.org/1999/02/22-rdf-syntax-ns#"
  style="enable-background:new 0 0 173.104 136.484;" xmlns="http://www.w3.org/2000/svg"
  xml:space="preserve" height="136.484" viewBox="0 0 173.104 136.484" width="173.104" version="1.1"
  xmlns:cc="http://creativecommons.org/ns#" xmlns:dc="http://purl.org/dc/elements/1.1/" fill="white">
<path d="m31.2867,133.0719,0-16.3286,2.223,0,8.5538,12.81455,0-12.81455,2.0786,0,0,16.3286-2.223,0-8.5538-12.81455,0,12.81455-2.0786,0,0,0z"/>
<path d="M99.4375,22.4375v27.40625l-29.03125,16.78125-32.625-18.875-33.46875,19.3125v38.65625l23.25,13.375,0.8125-1.375-22.4375-12.96875v-36.75l31.84375-18.375,31.8125,18.375v36.75l-22.40625,12.96875,0.78125,1.375,23.25-13.375v-37.71875l31.8125-18.375,22.40625,12.96875,0.8125-1.375-19.5625-11.34375v-27.4375h-1.625v26.5l-2.03125-1.1875-2,1.15625v-26.46875h-1.59375z" transform="translate(-6.0559342e-6,0)"/>
<path d="M9.9800998,70.800348h1.6150002v31.160002h-1.6150002v-31.160002z"/>
<path d="M64.3676,101.2944l0.8075,1.3775-19.9975,11.54345-0.8075-1.3775,19.9975-11.54345z"/>
<path d="M37.3401,55.9319l0.8075-1.425,27.0275,15.58095-0.8075,1.425-27.0275-15.58095z"/>
<path d="m129.18515,76.50035,0-16.3286,2.223,0,8.5538,12.81455,0-12.81455,2.0786,0,0,16.3286-2.223,0-8.5538-12.81455,0,12.81455-2.0786,0z"/><path d="m145.7541,76.50035,0-16.3286,2.16695,0,0,6.70985,8.44645,0,0-6.70985,2.16695,0,0,16.3286-2.16695,0,0-7.6893-8.44645,0,0,7.6893-2.16695,0z"/>
<path d="m168.7764,79.33515,0,1.4402-8.10445,0c-0.0114-0.36195,0.0475-0.70965,0.1767-1.04405,0.20805-0.551,0.53865-1.09345,0.99655-1.62735,0.456-0.5339,1.1115-1.15045,1.96555-1.84965,1.3262-1.09535,2.22585-1.9608,2.698-2.5973,0.4731-0.6365,0.70965-1.23975,0.70965-1.80785,0-0.5947-0.21375-1.09535-0.6422-1.5048-0.42655-0.4085-0.9842-0.61275-1.672-0.61275-0.7277,0-1.30815,0.21755-1.7442,0.6536s-0.65645,1.0393-0.66215,1.80975l-1.54375-0.1634c0.10545-1.1552,0.50445-2.0349,1.197-2.6391,0.69255-0.6061,1.6207-0.9082,2.7873-0.9082,1.1761,0,2.109,0.32585,2.79395,0.97755,0.68685,0.6517,1.0298,1.4592,1.0298,2.4225,0,0.4902-0.0998,0.97185-0.30115,1.44495-0.2014,0.4731-0.53485,0.97185-1.00035,1.4953-0.46645,0.52345-1.2388,1.24165-2.318,2.1546-0.90345,0.7581-1.4839,1.2711-1.74135,1.54185-0.25745,0.26885-0.4712,0.54055-0.63935,0.8132h6.01445v0.00095z"/>
<path d="m95.2483,12.07515c0-2.71035,0.7277-4.83075,2.18405-6.3631,1.45445-1.5333,3.3345-2.29995,5.6354-2.29995,1.5086,0,2.8671,0.36005,4.07645,1.08015,1.2103,0.72105,2.1337,1.72425,2.7683,3.01245s0.9519,2.7493,0.9519,4.3814c0,1.65585-0.3344,3.1369-1.00225,4.44315s-1.615,2.29615-2.8405,2.9678c-1.22455,0.67165-2.54695,1.00795-3.9653,1.00795-1.53615,0-2.9108-0.37145-4.1211-1.1134s-2.1261-1.75655-2.7512-3.04-0.93575-2.6429-0.93575-4.07645zm2.2268,0.02755c0,1.9665,0.52915,3.51595,1.5884,4.64835,1.05735,1.13145,2.3864,1.69765,3.98145,1.69765,1.62735,0,2.96495-0.5719,4.01755-1.71475,1.04975-1.14285,1.5751-2.7645,1.5751-4.86495,0-1.3281-0.2242-2.48805-0.67355-3.4789s-1.10675-1.7594-1.9722-2.3047c-0.8645-0.5453-1.8354-0.81795-2.9127-0.81795-1.52855,0-2.8462,0.52535-3.9482,1.5751-1.10485,1.0507-1.65585,2.8044-1.65585,5.26015z"/>
</svg>