<svg width="579" height="88" viewBox="0 0 579 88" fill="none" xmlns="http://www.w3.org/2000/svg">
  <path
    d="M0.279785 0.320312H26.7998L46.8398 59.2403H47.0798L66.0398 0.320312H92.5598V86.0003H74.9198V25.2803H74.6798L53.6798 86.0003H39.1598L18.1598 25.8803H17.9198V86.0003H0.279785V0.320312Z"
    fill="white" />
  <path
    d="M124.867 14.3603H107.827V0.320312H124.867V14.3603ZM107.827 23.9603H124.867V86.0003H107.827V23.9603Z"
    fill="white" />
  <path
    d="M138.284 23.9603H154.484V32.6003H154.844C157.004 29.0003 159.804 26.4003 163.244 24.8003C166.684 23.1203 170.204 22.2803 173.804 22.2803C178.364 22.2803 182.084 22.9203 184.964 24.2003C187.924 25.4003 190.244 27.1203 191.924 29.3603C193.604 31.5203 194.764 34.2003 195.404 37.4003C196.124 40.5203 196.484 44.0003 196.484 47.8403V86.0003H179.444V50.9603C179.444 45.8403 178.644 42.0403 177.044 39.5603C175.444 37.0003 172.604 35.7203 168.524 35.7203C163.884 35.7203 160.524 37.1203 158.444 39.9203C156.364 42.6403 155.324 47.1603 155.324 53.4803V86.0003H138.284V23.9603Z"
    fill="white" />
  <path
    d="M226.937 14.3603H209.897V0.320312H226.937V14.3603ZM209.897 23.9603H226.937V86.0003H209.897V23.9603Z"
    fill="white" />
  <path
    d="M240.835 23.9603H256.915V32.3603H257.155C259.395 29.1603 262.075 26.6803 265.195 24.9203C268.395 23.1603 272.035 22.2803 276.115 22.2803C280.035 22.2803 283.595 23.0403 286.795 24.5603C290.075 26.0803 292.555 28.7603 294.235 32.6003C296.075 29.8803 298.555 27.4803 301.675 25.4003C304.875 23.3203 308.635 22.2803 312.955 22.2803C316.235 22.2803 319.275 22.6803 322.075 23.4803C324.875 24.2803 327.275 25.5603 329.275 27.3203C331.275 29.0803 332.835 31.4003 333.955 34.2803C335.075 37.0803 335.635 40.4803 335.635 44.4803V86.0003H318.595V50.8403C318.595 48.7603 318.515 46.8003 318.355 44.9603C318.195 43.1203 317.755 41.5203 317.035 40.1603C316.315 38.8003 315.235 37.7203 313.795 36.9203C312.435 36.1203 310.555 35.7203 308.155 35.7203C305.755 35.7203 303.795 36.2003 302.275 37.1603C300.835 38.0403 299.675 39.2403 298.795 40.7603C297.995 42.2003 297.435 43.8803 297.115 45.8003C296.875 47.6403 296.755 49.5203 296.755 51.4403V86.0003H279.715V51.2003C279.715 49.3603 279.675 47.5603 279.595 45.8003C279.515 43.9603 279.155 42.2803 278.515 40.7603C277.955 39.2403 276.955 38.0403 275.515 37.1603C274.155 36.2003 272.115 35.7203 269.395 35.7203C268.595 35.7203 267.515 35.9203 266.155 36.3203C264.875 36.6403 263.595 37.3203 262.315 38.3603C261.115 39.3203 260.075 40.7603 259.195 42.6803C258.315 44.5203 257.875 46.9603 257.875 50.0003V86.0003H240.835V23.9603Z"
    fill="white" />
  <path
    d="M348.385 43.0403C348.625 39.0403 349.625 35.7203 351.385 33.0803C353.145 30.4403 355.385 28.3203 358.105 26.7203C360.825 25.1203 363.865 24.0003 367.225 23.3603C370.665 22.6403 374.105 22.2803 377.545 22.2803C380.665 22.2803 383.825 22.5203 387.025 23.0003C390.225 23.4003 393.145 24.2403 395.785 25.5203C398.425 26.8003 400.585 28.6003 402.265 30.9203C403.945 33.1603 404.785 36.1603 404.785 39.9203V72.2003C404.785 75.0003 404.945 77.6803 405.265 80.2403C405.585 82.8003 406.145 84.7203 406.945 86.0003H389.665C389.345 85.0403 389.065 84.0803 388.825 83.1203C388.665 82.0803 388.545 81.0403 388.465 80.0003C385.745 82.8003 382.545 84.7603 378.865 85.8803C375.185 87.0003 371.425 87.5603 367.585 87.5603C364.625 87.5603 361.865 87.2003 359.305 86.4803C356.745 85.7603 354.505 84.6403 352.585 83.1203C350.665 81.6003 349.145 79.6803 348.025 77.3603C346.985 75.0403 346.465 72.2803 346.465 69.0803C346.465 65.5603 347.065 62.6803 348.265 60.4403C349.545 58.1203 351.145 56.2803 353.065 54.9203C355.065 53.5603 357.305 52.5603 359.785 51.9203C362.345 51.2003 364.905 50.6403 367.465 50.2403C370.025 49.8403 372.545 49.5203 375.025 49.2803C377.505 49.0403 379.705 48.6803 381.625 48.2003C383.545 47.7203 385.065 47.0403 386.185 46.1603C387.305 45.2003 387.825 43.8403 387.745 42.0803C387.745 40.2403 387.425 38.8003 386.785 37.7603C386.225 36.6403 385.425 35.8003 384.385 35.2403C383.425 34.6003 382.265 34.2003 380.905 34.0403C379.625 33.8003 378.225 33.6803 376.705 33.6803C373.345 33.6803 370.705 34.4003 368.785 35.8403C366.865 37.2803 365.745 39.6803 365.425 43.0403H348.385ZM387.745 55.6403C387.025 56.2803 386.105 56.8003 384.985 57.2003C383.945 57.5203 382.785 57.8003 381.505 58.0403C380.305 58.2803 379.025 58.4803 377.665 58.6403C376.305 58.8003 374.945 59.0003 373.585 59.2403C372.305 59.4803 371.025 59.8003 369.745 60.2003C368.545 60.6003 367.465 61.1603 366.505 61.8803C365.625 62.5203 364.905 63.3603 364.345 64.4003C363.785 65.4403 363.505 66.7603 363.505 68.3603C363.505 69.8803 363.785 71.1603 364.345 72.2003C364.905 73.2403 365.665 74.0803 366.625 74.7203C367.585 75.2803 368.705 75.6803 369.985 75.9203C371.265 76.1603 372.585 76.2803 373.945 76.2803C377.305 76.2803 379.905 75.7203 381.745 74.6003C383.585 73.4803 384.945 72.1603 385.825 70.6403C386.705 69.0403 387.225 67.4403 387.385 65.8403C387.625 64.2403 387.745 62.9603 387.745 62.0003V55.6403Z"
    fill="white" />
  <path d="M418.491 0.320312H435.531V86.0003H418.491V0.320312Z" fill="white" />
  <path
    d="M466.469 14.3603H449.429V0.320312H466.469V14.3603ZM449.429 23.9603H466.469V86.0003H449.429V23.9603Z"
    fill="white" />
  <path
    d="M493.086 65.8403C493.086 67.6803 493.446 69.2803 494.166 70.6403C494.966 71.9203 495.966 73.0003 497.166 73.8803C498.366 74.6803 499.726 75.2803 501.246 75.6803C502.846 76.0803 504.486 76.2803 506.166 76.2803C507.366 76.2803 508.606 76.1603 509.886 75.9203C511.246 75.6003 512.446 75.1603 513.486 74.6003C514.606 73.9603 515.526 73.1603 516.246 72.2003C516.966 71.1603 517.326 69.8803 517.326 68.3603C517.326 65.8003 515.606 63.8803 512.166 62.6003C508.806 61.3203 504.086 60.0403 498.006 58.7603C495.526 58.2003 493.086 57.5603 490.686 56.8403C488.366 56.0403 486.286 55.0403 484.446 53.8403C482.606 52.5603 481.126 51.0003 480.006 49.1603C478.886 47.2403 478.326 44.9203 478.326 42.2003C478.326 38.2003 479.086 34.9203 480.606 32.3603C482.206 29.8003 484.286 27.8003 486.846 26.3603C489.406 24.8403 492.286 23.8003 495.486 23.2403C498.686 22.6003 501.966 22.2803 505.326 22.2803C508.686 22.2803 511.926 22.6003 515.046 23.2403C518.246 23.8803 521.086 24.9603 523.566 26.4803C526.046 28.0003 528.086 30.0403 529.686 32.6003C531.366 35.0803 532.366 38.2403 532.686 42.0803H516.486C516.246 38.8003 515.006 36.6003 512.766 35.4803C510.526 34.2803 507.886 33.6803 504.846 33.6803C503.886 33.6803 502.846 33.7603 501.726 33.9203C500.606 34.0003 499.566 34.2403 498.606 34.6403C497.726 35.0403 496.966 35.6403 496.326 36.4403C495.686 37.1603 495.366 38.1603 495.366 39.4403C495.366 40.9603 495.926 42.2003 497.046 43.1603C498.166 44.1203 499.606 44.9203 501.366 45.5603C503.206 46.1203 505.286 46.6403 507.606 47.1203C509.926 47.6003 512.286 48.1203 514.686 48.6803C517.166 49.2403 519.566 49.9203 521.886 50.7203C524.286 51.5203 526.406 52.6003 528.246 53.9603C530.086 55.2403 531.566 56.8803 532.686 58.8803C533.806 60.8003 534.366 63.2003 534.366 66.0803C534.366 70.1603 533.526 73.6003 531.846 76.4003C530.246 79.1203 528.126 81.3203 525.486 83.0003C522.846 84.6803 519.806 85.8403 516.366 86.4803C513.006 87.2003 509.566 87.5603 506.046 87.5603C502.446 87.5603 498.926 87.2003 495.486 86.4803C492.046 85.7603 488.966 84.5603 486.246 82.8803C483.606 81.2003 481.406 79.0003 479.646 76.2803C477.966 73.4803 477.046 70.0003 476.886 65.8403H493.086Z"
    fill="white" />
  <path
    d="M565.939 23.9603H578.419V35.3603H565.939V66.0803C565.939 68.9603 566.419 70.8803 567.379 71.8403C568.339 72.8003 570.259 73.2803 573.139 73.2803C574.099 73.2803 575.019 73.2403 575.899 73.1603C576.779 73.0803 577.619 72.9603 578.419 72.8003V86.0003C576.979 86.2403 575.379 86.4003 573.619 86.4803C571.859 86.5603 570.139 86.6003 568.459 86.6003C565.819 86.6003 563.299 86.4003 560.899 86.0003C558.579 85.6803 556.499 85.0003 554.659 83.9603C552.899 82.9203 551.499 81.4403 550.459 79.5203C549.419 77.6003 548.899 75.0803 548.899 71.9603V35.3603H538.579V23.9603H548.899V5.36031H565.939V23.9603Z"
    fill="white" />
</svg>